<?xml version="1.0" encoding="UTF-8"?>
<svg version="1.1" xmlns="http://www.w3.org/2000/svg" width="360" height="98">
<path d="M0 0 C11.0446054 7.49001975 18.56667964 17.40996153 21.1875 30.6875 C23.39983853 45.30737045 20.91745331 57.11344261 13.1875 69.6875 C5.11235033 80.60145456 -5.51807866 87.73009386 -18.8125 90.6875 C-35.87339677 91.7376662 -49.13532603 88.98344634 -62.8046875 78.1015625 C-71.83483336 69.87409628 -77.45726745 58.10178913 -78.125 46.00390625 C-78.44343773 36.59269642 -78.28801933 28.19098673 -73.8125 19.6875 C-73.4 18.841875 -72.9875 17.99625 -72.5625 17.125 C-66.06219546 5.01079608 -55.30679991 -1.96765584 -42.5859375 -6.44921875 C-27.7960555 -9.8328253 -12.93814689 -7.7524119 0 0 Z " fill="#F1FE75" transform="translate(77.8125,7.3125)"/>
<path d="M0 0 C3.3956697 -0.08745946 6.79104773 -0.14054444 10.1875 -0.1875 C11.14720703 -0.21263672 12.10691406 -0.23777344 13.09570312 -0.26367188 C22.07416443 -0.3568739 22.07416443 -0.3568739 26 3 C27.5547669 6.10953379 27.28644437 8.56266761 27 12 C25 15.4375 25 15.4375 23 18 C24.32732954 19.67145202 25.66226218 21.33686649 27 23 C27.42023438 23.55042969 27.84046875 24.10085937 28.2734375 24.66796875 C29.44852243 26.16709225 30.72033875 27.58909144 32 29 C32.99 29 33.98 29 35 29 C35.0578304 24.54172074 35.09353855 20.0835372 35.125 15.625 C35.14175781 14.35398437 35.15851563 13.08296875 35.17578125 11.7734375 C35.18222656 10.56171875 35.18867188 9.35 35.1953125 8.1015625 C35.20578613 6.98088379 35.21625977 5.86020508 35.22705078 4.70556641 C35.28055323 1.85022157 35.28055323 1.85022157 33 0 C37.95 0 42.9 0 48 0 C47.34 0.66 46.68 1.32 46 2 C45.68821575 4.78307748 45.68821575 4.78307748 45.734375 8.03125 C45.73179687 9.23394531 45.72921875 10.43664062 45.7265625 11.67578125 C45.73816406 13.56876953 45.73816406 13.56876953 45.75 15.5 C45.74226563 16.76199219 45.73453125 18.02398437 45.7265625 19.32421875 C45.73042969 21.12826172 45.73042969 21.12826172 45.734375 22.96875 C45.73663086 24.07669922 45.73888672 25.18464844 45.74121094 26.32617188 C45.72882699 29.15262582 45.72882699 29.15262582 48 31 C44.10430865 31.08732726 40.20887018 31.14050185 36.3125 31.1875 C35.20970703 31.21263672 34.10691406 31.23777344 32.97070312 31.26367188 C31.90400391 31.27333984 30.83730469 31.28300781 29.73828125 31.29296875 C28.75899658 31.3086792 27.77971191 31.32438965 26.77075195 31.34057617 C23.4870792 30.93695264 21.65671558 29.94205535 19 28 C17.234375 25.37109375 17.234375 25.37109375 15.75 22.4375 C15.24984375 21.46683594 14.7496875 20.49617188 14.234375 19.49609375 C13.82703125 18.67238281 13.4196875 17.84867188 13 17 C12.67 16.34 12.34 15.68 12 15 C12.804375 14.79375 13.60875 14.5875 14.4375 14.375 C17.30547606 13.21875079 17.30547606 13.21875079 17.9375 10.0625 C18.29544841 6.82398066 18.29544841 6.82398066 16 4 C13.43717258 3.27034634 13.43717258 3.27034634 11 3 C11.10946343 7.29221231 11.24018895 11.5835149 11.375 15.875 C11.4059375 17.09832031 11.436875 18.32164063 11.46875 19.58203125 C11.50742188 20.74863281 11.54609375 21.91523437 11.5859375 23.1171875 C11.6173584 24.19597168 11.6487793 25.27475586 11.68115234 26.38623047 C11.74676322 29.15761654 11.74676322 29.15761654 14 31 C9.38 31 4.76 31 0 31 C0.66 30.34 1.32 29.68 2 29 C2.31178425 26.21692252 2.31178425 26.21692252 2.265625 22.96875 C2.26820313 21.76605469 2.27078125 20.56335938 2.2734375 19.32421875 C2.26570312 18.06222656 2.25796875 16.80023438 2.25 15.5 C2.25773438 14.23800781 2.26546875 12.97601563 2.2734375 11.67578125 C2.26957031 9.87173828 2.26957031 9.87173828 2.265625 8.03125 C2.26336914 6.92330078 2.26111328 5.81535156 2.25878906 4.67382812 C2.27117301 1.84737418 2.27117301 1.84737418 0 0 Z " fill="#414141" transform="translate(176,31)"/>
<path d="M0 0 C6.6 0 13.2 0 20 0 C18.02 0.99 18.02 0.99 16 2 C15.99857498 2.77959076 15.99714996 3.55918152 15.99568176 4.36239624 C15.97777448 11.74711929 15.93593459 19.13115185 15.86790943 26.51556969 C15.83377061 30.311077 15.80855011 34.10618743 15.80444336 37.90185547 C15.80013188 41.57215437 15.77143764 45.24156 15.72656822 48.91157913 C15.71368325 50.3043864 15.70925329 51.69730107 15.71384621 53.09016037 C15.73568148 61.73096992 15.1368345 68.80940269 10 76 C6.66306331 79.3083261 4.3042101 80.88143545 -0.4375 81.3125 C-1.283125 81.209375 -2.12875 81.10625 -3 81 C-2.49339844 80.25556641 -2.49339844 80.25556641 -1.9765625 79.49609375 C-1.30753906 78.47708984 -1.30753906 78.47708984 -0.625 77.4375 C-0.18414062 76.77621094 0.25671875 76.11492187 0.7109375 75.43359375 C4.70625105 67.89092604 4.32170906 60.25329164 4.3359375 51.89453125 C4.34237301 50.52406173 4.34910192 49.15359355 4.35610962 47.78312683 C4.36803393 44.92284963 4.37179498 42.06269285 4.37060547 39.20239258 C4.37040142 35.54035427 4.39781258 31.8790845 4.43214989 28.21722889 C4.45438756 25.39219109 4.45844416 22.56734011 4.45738602 19.74222374 C4.46088533 17.73692966 4.48254856 15.73169386 4.50448608 13.72651672 C4.49833282 12.50812607 4.49217957 11.28973541 4.48583984 10.03442383 C4.4901149 8.42728264 4.4901149 8.42728264 4.49447632 6.78767395 C4.16899423 3.40534078 4.16899423 3.40534078 0 0 Z " fill="#444442" transform="translate(41,9)"/>
<path d="M0 0 C4.61075926 4.26801255 7.63649523 8.91901939 10.86914062 14.26757812 C11.86471173 15.87580837 12.92710009 17.44229266 14 19 C14.66 19 15.32 19 16 19 C17.42284286 17.19064017 17.42284286 17.19064017 18.8203125 14.84375 C19.62275391 13.55791016 19.62275391 13.55791016 20.44140625 12.24609375 C20.99699219 11.33988281 21.55257813 10.43367188 22.125 9.5 C22.68832031 8.59378906 23.25164062 7.68757813 23.83203125 6.75390625 C25.22779683 4.50648709 26.61674298 2.25513194 28 0 C28.66 0.33 29.32 0.66 30 1 C30.54663086 3.63623047 30.54663086 3.63623047 30.96484375 7.1171875 C31.12533203 8.36371094 31.28582031 9.61023438 31.45117188 10.89453125 C31.77716943 13.53971261 32.09471716 16.18578999 32.41210938 18.83203125 C32.57388672 20.08113281 32.73566406 21.33023438 32.90234375 22.6171875 C33.04148193 23.76815918 33.18062012 24.91913086 33.32397461 26.10498047 C33.81043318 29.3382224 33.81043318 29.3382224 37 32 C32.05 32 27.1 32 22 32 C22.66 31.34 23.32 30.68 24 30 C24.06003076 27.35659095 24.06003076 27.35659095 23.6875 24.4375 C23.53861328 22.95056641 23.53861328 22.95056641 23.38671875 21.43359375 C23.25340938 19.05761885 23.25340938 19.05761885 22 18 C20.85072616 19.93546116 19.70569358 21.87344128 18.5625 23.8125 C17.92441406 24.89144531 17.28632813 25.97039063 16.62890625 27.08203125 C14.919233 29.93180642 14.919233 29.93180642 14 33 C9.79039294 31.59679765 8.52644045 28.54971864 6.3125 24.9375 C5.89677734 24.27427734 5.48105469 23.61105469 5.05273438 22.92773438 C4.02759346 21.28986556 3.01279732 19.64553023 2 18 C1.34 22.29 0.68 26.58 0 31 C0.66 31.33 1.32 31.66 2 32 C-1.3 32 -4.6 32 -8 32 C-7.01 31.01 -6.02 30.02 -5 29 C-4.23538681 26.14198338 -4.23538681 26.14198338 -3.8671875 22.87109375 C-3.70089844 21.67162109 -3.53460938 20.47214844 -3.36328125 19.23632812 C-3.20214844 17.98271484 -3.04101562 16.72910156 -2.875 15.4375 C-2.54184715 12.95665571 -2.2060461 10.47616514 -1.8671875 7.99609375 C-1.72394043 6.89450928 -1.58069336 5.7929248 -1.43310547 4.65795898 C-1 2 -1 2 0 0 Z " fill="#414141" transform="translate(323,30)"/>
<path d="M0 0 C3.99960899 -0.14638209 7.99852058 -0.23443323 12 -0.3125 C13.68802734 -0.3753418 13.68802734 -0.3753418 15.41015625 -0.43945312 C22.52962904 -0.54353898 27.60768131 0.08180907 33 5 C36.12210983 9.39046695 36.86047711 13.71845085 36 19 C34.62210518 23.76630283 32.9436396 26.67214865 28.625 29.21875 C23.08156715 31.81392398 17.50139533 31.43664627 11.5 31.25 C10.39140625 31.23195313 9.2828125 31.21390625 8.140625 31.1953125 C5.42616704 31.1485115 2.71355284 31.08296375 0 31 C1.32 30.34 2.64 29.68 4 29 C3.91946759 24.54090702 3.8065955 20.0832166 3.6875 15.625 C3.66494141 14.35398437 3.64238281 13.08296875 3.61914062 11.7734375 C3.58369141 10.56171875 3.54824219 9.35 3.51171875 8.1015625 C3.48553467 6.98088379 3.45935059 5.86020508 3.43237305 4.70556641 C3.28968994 3.81272949 3.14700684 2.91989258 3 2 C2.01 1.34 1.02 0.68 0 0 Z M12 3 C12 11.25 12 19.5 12 28 C20.46164909 28.93105442 20.46164909 28.93105442 24 25.625 C27.77567772 20.669423 27.65263537 16.0969883 27 10 C25.80791528 7.19318235 24.16577152 5.16577152 22 3 C18.7 3 15.4 3 12 3 Z " fill="#414141" transform="translate(226,31)"/>
<path d="M0 0 C4.95 0 9.9 0 15 0 C14.01 0.33 13.02 0.66 12 1 C12.05187541 4.75112898 12.14695218 8.49995532 12.25 12.25 C12.26417969 13.31347656 12.27835937 14.37695312 12.29296875 15.47265625 C12.32519531 16.49746094 12.35742188 17.52226563 12.390625 18.578125 C12.41157227 19.52075195 12.43251953 20.46337891 12.45410156 21.43457031 C13.15769785 24.74109524 14.32836098 25.97689807 17 28 C20.62649951 28.08916154 20.62649951 28.08916154 24 27 C26.19164944 23.71252584 26.28679386 22.51505175 26.4140625 18.67578125 C26.45273437 17.64775391 26.49140625 16.61972656 26.53125 15.56054688 C26.57765625 13.95276367 26.57765625 13.95276367 26.625 12.3125 C26.66367187 11.22904297 26.70234375 10.14558594 26.7421875 9.02929688 C26.83650509 6.35303533 26.92210005 3.67678157 27 1 C26.01 0.67 25.02 0.34 24 0 C27.63 0 31.26 0 35 0 C34.01 0.33 33.02 0.66 32 1 C32.01571045 1.60473145 32.0314209 2.20946289 32.04760742 2.83251953 C32.1103188 5.59658296 32.14910411 8.36049621 32.1875 11.125 C32.21263672 12.07632813 32.23777344 13.02765625 32.26367188 14.0078125 C32.32998643 20.37401005 31.63264299 24.68058058 27.5625 29.8125 C23.70663774 32.74295532 18.6532204 32.49483874 14 32 C10.10355102 30.87899781 6.48573871 29.31431828 4 26 C2.99994696 22.99984088 2.88424415 21.02576244 2.90234375 17.89453125 C2.90717773 16.42016602 2.90717773 16.42016602 2.91210938 14.91601562 C2.92048828 13.89185547 2.92886719 12.86769531 2.9375 11.8125 C2.94201172 10.77673828 2.94652344 9.74097656 2.95117188 8.67382812 C2.9629599 6.11582734 2.97941485 3.55794267 3 1 C2.01 0.67 1.02 0.34 0 0 Z " fill="#424242" transform="translate(281,31)"/>
<path d="M0 0 C4.62 0 9.24 0 14 0 C13.34 0.66 12.68 1.32 12 2 C11.70651727 4.04941071 11.70651727 4.04941071 11.76953125 6.39453125 C11.77243164 7.70454102 11.77243164 7.70454102 11.77539062 9.04101562 C11.78763672 9.95560547 11.79988281 10.87019531 11.8125 11.8125 C11.81314453 12.71548828 11.81378906 13.61847656 11.81445312 14.54882812 C11.84265881 18.81415522 11.9113312 22.84563988 13 27 C14.41154099 27.27748242 15.82979799 27.52093516 17.25 27.75 C18.03890625 27.88921875 18.8278125 28.0284375 19.640625 28.171875 C22.09145224 28.1628229 22.09145224 28.1628229 24.2734375 26.7109375 C27.05009368 22.35121038 26.49786996 17.925602 26.375 12.875 C26.37371094 11.86050781 26.37242187 10.84601562 26.37109375 9.80078125 C26.6491411 4.35202925 26.6491411 4.35202925 24 0 C27.3 0 30.6 0 34 0 C33.34 0.66 32.68 1.32 32 2 C31.69481409 4.34249378 31.69481409 4.34249378 31.7265625 7.05078125 C31.7059375 8.05947266 31.6853125 9.06816406 31.6640625 10.10742188 C31.63816463 12.23234225 31.61984969 14.3573695 31.609375 16.48242188 C31.4305195 24.28747696 31.4305195 24.28747696 29.09765625 28.1484375 C24.88208913 31.86944088 20.83130606 32.44860081 15.3515625 32.3203125 C11.49320207 31.7947551 8.07927747 30.39253213 5 28 C3.09726945 24.90317166 2.73214415 22.47281391 2.65625 18.8671875 C2.62660156 17.89652344 2.59695312 16.92585938 2.56640625 15.92578125 C2.52196544 13.88411828 2.4776959 11.84245157 2.43359375 9.80078125 C2.40394531 8.83269531 2.37429687 7.86460938 2.34375 6.8671875 C2.32505859 5.98144043 2.30636719 5.09569336 2.28710938 4.18310547 C2.19802978 1.79211693 2.19802978 1.79211693 0 0 Z " fill="#414141" transform="translate(139,31)"/>
<path d="M0 0 C5.61 0 11.22 0 17 0 C16.01 0.66 15.02 1.32 14 2 C13.71082238 4.60948832 13.6069809 6.99470265 13.62890625 9.60546875 C13.6115103 11.16211142 13.59392608 12.718752 13.57617188 14.27539062 C13.56613595 16.72636003 13.56249278 19.17718482 13.56420898 21.62817383 C13.56061514 23.99603938 13.53317147 26.3628013 13.50390625 28.73046875 C13.51208878 29.45364792 13.5202713 30.17682709 13.52870178 30.92192078 C13.45034394 36.33867659 12.04246208 39.50891636 9 44 C5.6556079 46.65244891 2.13374247 46.15899009 -2 46 C-1.360625 45.21625 -0.72125 44.4325 -0.0625 43.625 C3.31326966 39.32856589 3.17473224 36.07737497 3.203125 30.78125 C3.20882507 29.96756958 3.21452515 29.15388916 3.22039795 28.31555176 C3.22984882 26.59400738 3.23638228 24.87244491 3.24023438 23.15087891 C3.2499616 20.5104244 3.28099199 17.87074119 3.3125 15.23046875 C3.31902785 13.55990047 3.32427918 11.88932661 3.328125 10.21875 C3.3404718 9.42601685 3.3528186 8.63328369 3.36553955 7.81652832 C3.39060325 5.35920776 3.39060325 5.35920776 3 2 C2.01 1.34 1.02 0.68 0 0 Z " fill="#414141" transform="translate(120,26)"/>
<path d="M0 0 C4.95 0 9.9 0 15 0 C14.34 0.66 13.68 1.32 13 2 C12.68821575 4.78307748 12.68821575 4.78307748 12.734375 8.03125 C12.73179687 9.23394531 12.72921875 10.43664062 12.7265625 11.67578125 C12.73429687 12.93777344 12.74203125 14.19976562 12.75 15.5 C12.74226563 16.76199219 12.73453125 18.02398437 12.7265625 19.32421875 C12.72914063 20.52691406 12.73171875 21.72960937 12.734375 22.96875 C12.73663086 24.07669922 12.73888672 25.18464844 12.74121094 26.32617188 C12.72882699 29.15262582 12.72882699 29.15262582 15 31 C10.05 31 5.1 31 0 31 C0.66 30.34 1.32 29.68 2 29 C2.31178425 26.21692252 2.31178425 26.21692252 2.265625 22.96875 C2.26820313 21.76605469 2.27078125 20.56335938 2.2734375 19.32421875 C2.26570313 18.06222656 2.25796875 16.80023438 2.25 15.5 C2.25773437 14.23800781 2.26546875 12.97601563 2.2734375 11.67578125 C2.26957031 9.87173828 2.26957031 9.87173828 2.265625 8.03125 C2.26336914 6.92330078 2.26111328 5.81535156 2.25878906 4.67382812 C2.27117301 1.84737418 2.27117301 1.84737418 0 0 Z " fill="#414141" transform="translate(264,31)"/>
</svg>
